HIERARCHY
ROOT Hips
{
	OFFSET 28.1985 91.3596 -129.38
	CHANNELS 6 Xposition Yposition Zposition Zrotation Xrotation Yrotation
	JOINT Spine
	{
		OFFSET 0 10.59 0
		CHANNELS 3 Zrotation Xrotation Yrotation
		JOINT Spine1
		{
			OFFSET 0 10.59 0
			CHANNELS 3 Zrotation Xrotation Yrotation
			JOINT Spine2
			{
				OFFSET 0 10.59 0
				CHANNELS 3 Zrotation Xrotation Yrotation
				JOINT Spine3
				{
					OFFSET 0 10.59 0
					CHANNELS 3 Zrotation Xrotation Yrotation
					JOINT LeftShoulder
					{
						OFFSET 1.5 7.31538 0
						CHANNELS 3 Zrotation Xrotation Yrotation
						JOINT LeftArm
						{
							OFFSET 14.3424 0 0
							CHANNELS 3 Zrotation Xrotation Yrotation
							JOINT LeftForeArm
							{
								OFFSET 29.4034 0 0
								CHANNELS 3 Zrotation Xrotation Yrotation
								JOINT LeftHand
								{
									OFFSET 23.4565 0 0
									CHANNELS 3 Zrotation Xrotation Yrotation
									End Site
									{
										OFFSET 10 0 0
									}
								}
							}
						}
					}
					JOINT RightShoulder
					{
						OFFSET -1.49999 7.31538 0
						CHANNELS 3 Zrotation Xrotation Yrotation
						JOINT RightArm
						{
							OFFSET -14.3424 0 0
							CHANNELS 3 Zrotation Xrotation Yrotation
							JOINT RightForeArm
							{
								OFFSET -29.4034 0 0
								CHANNELS 3 Zrotation Xrotation Yrotation
								JOINT RightHand
								{
									OFFSET -23.4565 0 0
									CHANNELS 3 Zrotation Xrotation Yrotation
									End Site
									{
										OFFSET -10 0 0
									}
								}
							}
						}
					}
					JOINT Neck
					{
						OFFSET 0 10.59 0
						CHANNELS 3 Zrotation Xrotation Yrotation
						JOINT Head
						{
							OFFSET 0 9.22924 0
							CHANNELS 3 Zrotation Xrotation Yrotation
							End Site
							{
								OFFSET 0 15 0
							}
						}
					}
				}
			}
		}
	}
	JOINT LeftUpLeg
	{
		OFFSET 11.2279 0 0
		CHANNELS 3 Zrotation Xrotation Yrotation
		JOINT LeftLeg
		{
			OFFSET 0 -47.7577 0
			CHANNELS 3 Zrotation Xrotation Yrotation
			JOINT LeftFoot
			{
				OFFSET 0 -35.6859 0
				CHANNELS 3 Zrotation Xrotation Yrotation
				JOINT LeftToeBase
				{
					OFFSET 0 -5.73588 9.93486
					CHANNELS 3 Zrotation Xrotation Yrotation
					End Site
					{
						OFFSET 0 0 5
					}
				}
			}
		}
	}
	JOINT RightUpLeg
	{
		OFFSET -11.2279 0 0
		CHANNELS 3 Zrotation Xrotation Yrotation
		JOINT RightLeg
		{
			OFFSET 0 -47.7577 0
			CHANNELS 3 Zrotation Xrotation Yrotation
			JOINT RightFoot
			{
				OFFSET 0 -35.6859 0
				CHANNELS 3 Zrotation Xrotation Yrotation
				JOINT RightToeBase
				{
					OFFSET 0 -5.73588 9.93486
					CHANNELS 3 Zrotation Xrotation Yrotation
					End Site
					{
						OFFSET 0 0 5
					}
				}
			}
		}
	}
}
MOTION
Frames: 8
Frame Time: 0.0111111
28.1985 91.3596 -129.38 179.216 -177.15 179.663 0.327231 2.0108 -0.65271 0.327231 2.0108 -0.65271 0.327231 2.0108 -0.65271 0.327231 2.0108 -0.65271 150.833 178.513 178.095 146.712 167.899 173.045 175.241 156.887 160.75 11.2819 -14.9926 7.5843 22.3309 3.24021 3.62047 36.9984 0.478928 7.1148 4.50925 23.7588 12.2234 14.0884 -23.9395 -2.64986 176.526 179.842 166.573 0.510043 3.91375 -0.435414 179.494 -179.147 -179.758 1.09927 5.22042 -0.928176 179.239 -177.258 -177 0.0955604 2.3736 0.126987 2.21105 -1.64216 -0.214172 0.959047 6.04015 0.0626657 0.0270562 -2.78578 -4.28491 0.113982 1.68187 0.111902
28.2024 91.364 -129.373 179.231 -177.148 179.66 0.323116 2.01194 -0.652124 0.323116 2.01194 -0.652124 0.323116 2.01194 -0.652124 0.323116 2.01194 -0.652124 150.799 178.497 178.095 146.762 167.891 173.038 175.241 156.949 160.755 11.2155 -14.8441 7.43587 22.3522 3.23136 3.62043 36.9806 0.439885 7.11958 4.49232 23.8668 12.224 14.1113 -23.9711 -2.64893 176.525 179.847 166.539 0.507984 3.92271 -0.438509 179.474 -179.155 -179.79 1.09913 5.21215 -0.928163 179.228 -177.282 -176.931 0.0954565 2.42042 0.126991 2.19227 -1.65272 -0.212738 0.959006 6.07757 0.06267 0.0851472 -2.82433 -4.27192 0.114007 1.66925 0.111901
28.1982 91.363 -129.364 179.219 -177.142 179.661 0.326993 2.01408 -0.651986 0.326993 2.01408 -0.651986 0.326993 2.01408 -0.651986 0.326993 2.01408 -0.651986 150.802 178.533 178.095 146.75 167.868 173.05 175.255 156.89 160.752 11.3324 -15.0034 7.58324 22.3739 3.23055 3.62043 36.9401 0.488886 7.11781 4.49483 23.7805 12.2395 14.212 -24.085 -2.6358 176.527 179.851 166.562 0.502207 3.91792 -0.44248 179.491 -179.158 -179.769 1.09947 5.23265 -0.928194 179.295 -177.272 -176.993 0.0954087 2.44199 0.126993 2.20314 -1.63772 -0.206711 0.958999 6.08361 0.0626707 0.136603 -2.863 -4.26975 0.113898 1.72478 0.111904
28.204 91.3627 -129.36 179.239 -177.15 179.651 0.322095 2.00883 -0.650279 0.322095 2.00883 -0.650279 0.322095 2.00883 -0.650279 0.322095 2.00883 -0.650279 150.797 178.506 178.095 146.766 167.892 173.049 175.247 156.905 160.745 11.344 -14.9431 7.51885 22.3723 3.24861 3.6205 36.9501 0.437051 7.13165 4.49119 23.839 12.2266 14.086 -23.9837 -2.67382 176.517 179.852 166.554 0.510967 3.91474 -0.43397 179.467 -179.155 -179.81 1.09928 5.2211 -0.928177 179.21 -177.309 -176.939 0.0956826 2.31851 0.126982 2.18356 -1.64338 -0.207178 0.959009 6.07425 0.0626696 0.0192946 -2.80423 -4.25022 0.114003 1.67093 0.111901
28.2016 91.3612 -129.351 179.224 -177.139 179.646 0.330047 2.01197 -0.654037 0.330047 2.01197 -0.654037 0.330047 2.01197 -0.654037 0.330047 2.01197 -0.654037 150.778 178.502 178.095 146.772 167.919 173.056 175.259 156.851 160.725 11.3856 -14.9182 7.58929 22.3614 3.24382 3.62048 36.9454 0.446109 7.15811 4.50979 23.7972 12.1927 14.0659 -23.8686 -2.61441 176.491 179.861 166.561 0.512202 3.9187 -0.43435 179.48 -179.161 -179.762 1.09996 5.26324 -0.928239 179.277 -177.27 -176.985 0.095572 2.36836 0.126986 2.19729 -1.63205 -0.196549 0.958987 6.09482 0.062672 0.0431206 -2.81438 -4.23548 0.114079 1.63223 0.111899
28.1875 91.3552 -129.336 179.18 -177.123 179.675 0.34764 2.0121 -0.663464 0.34764 2.0121 -0.663464 0.34764 2.0121 -0.663464 0.34764 2.0121 -0.663464 150.765 178.513 178.095 146.768 167.894 173.063 175.244 156.892 160.746 11.2898 -14.897 7.54414 22.3157 3.25095 3.6205 36.9552 0.510215 7.15611 4.46875 23.8213 12.262 13.9859 -23.8609 -2.72115 176.453 179.844 166.567 0.518075 3.90843 -0.427049 179.534 -179.177 -179.754 1.10025 5.2809 -0.928266 179.033 -177.298 -176.991 0.0958078 2.26206 0.126977 2.25579 -1.59866 -0.228932 0.959016 6.06862 0.062669 0.0242917 -2.83478 -4.28942 0.113866 1.74138 0.111905
28.1873 91.3541 -129.336 179.178 -177.127 179.674 0.349864 2.0103 -0.664067 0.349864 2.0103 -0.664067 0.349864 2.0103 -0.664067 0.349864 2.0103 -0.664067 150.765 178.516 178.095 146.769 167.894 173.057 175.245 156.892 160.744 11.2905 -14.8974 7.54263 22.3176 3.24265 3.62047 36.9521 0.507951 7.16565 4.46573 23.8199 12.2635 13.9873 -23.8619 -2.71986 176.449 179.847 166.569 0.516066 3.90628 -0.425585 179.539 -179.176 -179.764 1.10021 5.27825 -0.928262 179.036 -177.294 -177.001 0.0958088 2.2616 0.126977 2.25211 -1.59915 -0.21493 0.959015 6.06882 0.062669 0.0617269 -2.83412 -4.27843 0.113866 1.74095 0.111905
28.1856 91.3561 -129.321 179.161 -177.11 179.666 0.358241 2.01355 -0.661927 0.358241 2.01355 -0.661927 0.358241 2.01355 -0.661927 0.358241 2.01355 -0.661927 150.74 178.513 178.095 146.777 167.913 173.048 175.249 156.874 160.754 11.2831 -14.7631 7.48399 22.3202 3.26051 3.62054 36.9413 0.457853 7.17901 4.46731 23.8045 12.2474 14.122 -23.8879 -2.65922 176.426 179.849 166.551 0.517942 3.90355 -0.426226 179.554 -179.203 -179.763 1.10034 5.28663 -0.928274 179.057 -177.232 -176.997 0.0957955 2.2676 0.126977 2.27134 -1.57589 -0.184247 0.958999 6.08354 0.0626707 0.0871264 -2.8237 -4.29109 0.114033 1.65591 0.1119
